<svg xmlns="http://www.w3.org/2000/svg" width="28.926" height="28.92" viewBox="0 0 28.926 28.92">
  <g id="Group_288" data-name="Group 288" transform="translate(0.004 -107.418)">
    <path id="instagram" d="M14.466,7.045a7.415,7.415,0,1,0,7.415,7.415A7.4,7.4,0,0,0,14.466,7.045Zm0,12.235a4.821,4.821,0,1,1,4.821-4.821A4.829,4.829,0,0,1,14.466,19.28ZM23.914,6.742a1.729,1.729,0,1,1-1.729-1.729A1.725,1.725,0,0,1,23.914,6.742ZM28.825,8.5a8.559,8.559,0,0,0-2.336-6.06A8.615,8.615,0,0,0,20.429.1C18.041-.034,10.885-.034,8.5.1a8.6,8.6,0,0,0-6.06,2.33A8.587,8.587,0,0,0,.1,8.491c-.136,2.388-.136,9.544,0,11.932a8.559,8.559,0,0,0,2.336,6.06A8.626,8.626,0,0,0,8.5,28.818c2.388.136,9.544.136,11.932,0a8.559,8.559,0,0,0,6.06-2.336,8.615,8.615,0,0,0,2.336-6.06C28.96,18.035,28.96,10.885,28.825,8.5ZM25.74,22.985a4.88,4.88,0,0,1-2.749,2.749c-1.9.755-6.421.581-8.525.581s-6.627.168-8.525-.581a4.88,4.88,0,0,1-2.749-2.749c-.755-1.9-.581-6.421-.581-8.525s-.168-6.627.581-8.525A4.88,4.88,0,0,1,5.942,3.186c1.9-.755,6.421-.581,8.525-.581s6.627-.168,8.525.581A4.88,4.88,0,0,1,25.74,5.935c.755,1.9.581,6.421.581,8.525S26.5,21.087,25.74,22.985Z" transform="translate(-0.004 107.418)" fill="#103b40"/>
  </g>
</svg>
