<?xml version="1.0" encoding="UTF-8" standalone="no"?>
<!-- Generator: Gravit.io -->
<svg xmlns="http://www.w3.org/2000/svg" xmlns:xlink="http://www.w3.org/1999/xlink" style="isolation:isolate" viewBox="0 0 731.286 139" width="731.286pt" height="139pt"><defs><clipPath id="_clipPath_F1w3i5rYkYZ0KxAPw75X2DZbHlz0wUN7"><rect width="731.286" height="139"/></clipPath></defs><g clip-path="url(#_clipPath_F1w3i5rYkYZ0KxAPw75X2DZbHlz0wUN7)"><path d=" M 161.133 99.2 L 161.133 110 L 125.061 110 L 125.061 99.2 L 137.265 99.2 L 137.265 45.2 L 125.061 45.2 L 125.061 34.4 L 161.133 34.4 L 161.133 45.2 L 148.929 45.2 L 148.929 99.2 L 161.133 99.2 L 161.133 99.2 Z  M 232.305 59.24 L 232.305 34.4 L 243.969 34.4 L 243.969 110 L 233.277 110 L 189.321 52.328 L 189.321 52.328 Q 189.969 58.916 190.563 65.45 L 190.563 65.45 L 190.563 65.45 Q 191.157 71.984 191.157 78.572 L 191.157 78.572 L 191.157 110 L 179.493 110 L 179.493 34.4 L 189.969 34.4 L 233.925 93.26 L 233.925 93.26 Q 232.953 85.376 232.629 76.25 L 232.629 76.25 L 232.629 76.25 Q 232.305 67.124 232.305 59.24 L 232.305 59.24 L 232.305 59.24 Z  M 317.949 59.24 L 317.949 34.4 L 329.613 34.4 L 329.613 110 L 318.921 110 L 274.965 52.328 L 274.965 52.328 Q 275.613 58.916 276.207 65.45 L 276.207 65.45 L 276.207 65.45 Q 276.801 71.984 276.801 78.572 L 276.801 78.572 L 276.801 110 L 265.137 110 L 265.137 34.4 L 275.613 34.4 L 319.569 93.26 L 319.569 93.26 Q 318.597 85.376 318.273 76.25 L 318.273 76.25 L 318.273 76.25 Q 317.949 67.124 317.949 59.24 L 317.949 59.24 L 317.949 59.24 Z  M 384.045 99.2 L 384.045 110 L 347.973 110 L 347.973 99.2 L 360.177 99.2 L 360.177 45.2 L 347.973 45.2 L 347.973 34.4 L 384.045 34.4 L 384.045 45.2 L 371.841 45.2 L 371.841 99.2 L 384.045 99.2 L 384.045 99.2 Z  M 402.405 34.4 L 433.941 34.4 L 433.941 34.4 Q 444.957 34.4 450.573 39.26 L 450.573 39.26 L 450.573 39.26 Q 456.189 44.12 456.189 53.408 L 456.189 53.408 L 456.189 53.408 Q 456.189 58.484 453.759 62.48 L 453.759 62.48 L 453.759 62.48 Q 451.329 66.476 446.577 68.744 L 446.577 68.744 L 446.577 68.744 Q 450.141 69.932 453.219 72.362 L 453.219 72.362 L 453.219 72.362 Q 456.297 74.792 458.241 78.572 L 458.241 78.572 L 458.241 78.572 Q 460.185 82.352 460.185 87.752 L 460.185 87.752 L 460.185 87.752 Q 460.185 94.34 457.917 98.66 L 457.917 98.66 L 457.917 98.66 Q 455.649 102.98 451.977 105.464 L 451.977 105.464 L 451.977 105.464 Q 448.305 107.948 443.877 108.974 L 443.877 108.974 L 443.877 108.974 Q 439.449 110 435.021 110 L 435.021 110 L 402.405 110 L 402.405 34.4 L 402.405 34.4 Z  M 431.997 45.632 L 431.997 45.632 L 414.069 45.632 L 414.069 65.72 L 433.293 65.72 L 433.293 65.72 Q 437.721 65.612 441.123 63.02 L 441.123 63.02 L 441.123 63.02 Q 444.525 60.428 444.525 55.676 L 444.525 55.676 L 444.525 55.676 Q 444.525 50.276 440.907 47.954 L 440.907 47.954 L 440.907 47.954 Q 437.289 45.632 431.997 45.632 Z  M 433.833 76.952 L 433.833 76.952 L 414.069 76.952 L 414.069 98.768 L 434.373 98.768 L 434.373 98.768 Q 440.529 98.768 444.417 96.014 L 444.417 96.014 L 444.417 96.014 Q 448.305 93.26 448.305 87.536 L 448.305 87.536 L 448.305 87.536 Q 448.305 83.432 446.037 81.164 L 446.037 81.164 L 446.037 81.164 Q 443.769 78.896 440.475 77.924 L 440.475 77.924 L 440.475 77.924 Q 437.181 76.952 433.833 76.952 Z  M 544.641 72.2 L 544.641 72.2 L 544.641 72.2 Q 544.641 80.408 541.941 87.482 L 541.941 87.482 L 541.941 87.482 Q 539.241 94.556 534.219 99.848 L 534.219 99.848 L 534.219 99.848 Q 529.197 105.14 522.447 108.11 L 522.447 108.11 L 522.447 108.11 Q 515.697 111.08 507.597 111.08 L 507.597 111.08 L 507.597 111.08 Q 499.497 111.08 492.693 108.11 L 492.693 108.11 L 492.693 108.11 Q 485.889 105.14 480.921 99.848 L 480.921 99.848 L 480.921 99.848 Q 475.953 94.556 473.253 87.482 L 473.253 87.482 L 473.253 87.482 Q 470.553 80.408 470.553 72.2 L 470.553 72.2 L 470.553 72.2 Q 470.553 63.992 473.253 56.918 L 473.253 56.918 L 473.253 56.918 Q 475.953 49.844 480.921 44.552 L 480.921 44.552 L 480.921 44.552 Q 485.889 39.26 492.693 36.29 L 492.693 36.29 L 492.693 36.29 Q 499.497 33.32 507.597 33.32 L 507.597 33.32 L 507.597 33.32 Q 515.697 33.32 522.447 36.29 L 522.447 36.29 L 522.447 36.29 Q 529.197 39.26 534.219 44.552 L 534.219 44.552 L 534.219 44.552 Q 539.241 49.844 541.941 56.918 L 541.941 56.918 L 541.941 56.918 Q 544.641 63.992 544.641 72.2 Z  M 532.761 72.2 L 532.761 72.2 L 532.761 72.2 Q 532.761 64.316 529.521 58.106 L 529.521 58.106 L 529.521 58.106 Q 526.281 51.896 520.611 48.278 L 520.611 48.278 L 520.611 48.278 Q 514.941 44.66 507.597 44.66 L 507.597 44.66 L 507.597 44.66 Q 500.145 44.66 494.475 48.278 L 494.475 48.278 L 494.475 48.278 Q 488.805 51.896 485.619 58.106 L 485.619 58.106 L 485.619 58.106 Q 482.433 64.316 482.433 72.2 L 482.433 72.2 L 482.433 72.2 Q 482.433 80.084 485.619 86.294 L 485.619 86.294 L 485.619 86.294 Q 488.805 92.504 494.475 96.122 L 494.475 96.122 L 494.475 96.122 Q 500.145 99.74 507.597 99.74 L 507.597 99.74 L 507.597 99.74 Q 514.941 99.74 520.611 96.122 L 520.611 96.122 L 520.611 96.122 Q 526.281 92.504 529.521 86.24 L 529.521 86.24 L 529.521 86.24 Q 532.761 79.976 532.761 72.2 Z  M 629.097 72.2 L 629.097 72.2 L 629.097 72.2 Q 629.097 80.408 626.397 87.482 L 626.397 87.482 L 626.397 87.482 Q 623.697 94.556 618.675 99.848 L 618.675 99.848 L 618.675 99.848 Q 613.653 105.14 606.903 108.11 L 606.903 108.11 L 606.903 108.11 Q 600.153 111.08 592.053 111.08 L 592.053 111.08 L 592.053 111.08 Q 583.953 111.08 577.149 108.11 L 577.149 108.11 L 577.149 108.11 Q 570.345 105.14 565.377 99.848 L 565.377 99.848 L 565.377 99.848 Q 560.409 94.556 557.709 87.482 L 557.709 87.482 L 557.709 87.482 Q 555.009 80.408 555.009 72.2 L 555.009 72.2 L 555.009 72.2 Q 555.009 63.992 557.709 56.918 L 557.709 56.918 L 557.709 56.918 Q 560.409 49.844 565.377 44.552 L 565.377 44.552 L 565.377 44.552 Q 570.345 39.26 577.149 36.29 L 577.149 36.29 L 577.149 36.29 Q 583.953 33.32 592.053 33.32 L 592.053 33.32 L 592.053 33.32 Q 600.153 33.32 606.903 36.29 L 606.903 36.29 L 606.903 36.29 Q 613.653 39.26 618.675 44.552 L 618.675 44.552 L 618.675 44.552 Q 623.697 49.844 626.397 56.918 L 626.397 56.918 L 626.397 56.918 Q 629.097 63.992 629.097 72.2 Z  M 617.217 72.2 L 617.217 72.2 L 617.217 72.2 Q 617.217 64.316 613.977 58.106 L 613.977 58.106 L 613.977 58.106 Q 610.737 51.896 605.067 48.278 L 605.067 48.278 L 605.067 48.278 Q 599.397 44.66 592.053 44.66 L 592.053 44.66 L 592.053 44.66 Q 584.601 44.66 578.931 48.278 L 578.931 48.278 L 578.931 48.278 Q 573.261 51.896 570.075 58.106 L 570.075 58.106 L 570.075 58.106 Q 566.889 64.316 566.889 72.2 L 566.889 72.2 L 566.889 72.2 Q 566.889 80.084 570.075 86.294 L 570.075 86.294 L 570.075 86.294 Q 573.261 92.504 578.931 96.122 L 578.931 96.122 L 578.931 96.122 Q 584.601 99.74 592.053 99.74 L 592.053 99.74 L 592.053 99.74 Q 599.397 99.74 605.067 96.122 L 605.067 96.122 L 605.067 96.122 Q 610.737 92.504 613.977 86.24 L 613.977 86.24 L 613.977 86.24 Q 617.217 79.976 617.217 72.2 Z  M 656.529 85.268 L 656.529 110 L 644.865 110 L 644.865 34.4 L 656.529 34.4 L 656.529 71.444 L 693.573 34.4 L 708.909 34.4 L 676.293 66.044 L 709.557 110 L 694.977 110 L 668.085 74.036 L 656.529 85.268 L 656.529 85.268 Z " fill-rule="evenodd" fill="none" vector-effect="non-scaling-stroke" stroke-width="1" stroke="rgb(16,59,64)" stroke-linejoin="miter" stroke-linecap="butt" stroke-miterlimit="4"/><clipPath id="_clipPath_Mb0luUDpbTwRF44cNWcspNASv8r3JW32"><rect x="0" y="29.849" width="114.604" height="87.559" transform="matrix(-1,0,0,-1,114.604,147.257)" fill="rgb(255,255,255)"/></clipPath><g clip-path="url(#_clipPath_Mb0luUDpbTwRF44cNWcspNASv8r3JW32)"><g><path d=" M 93.932 113.178 L 83.146 113.178 C 80.892 113.178 79.283 110.602 79.604 108.027 L 86.366 64.402 L 90.39 38.162 C 91.19 33.333 96.668 33.333 97.473 38.162 L 101.5 64.402 L 108.259 108.027 C 108.581 110.602 106.971 113.178 104.717 113.178 L 93.932 113.178 Z " fill="rgb(16,59,64)"/><path d=" M 57.39 113.017 L 46.605 113.017 C 44.351 113.017 42.742 110.441 43.063 107.866 L 49.824 64.08 L 53.849 38.001 C 54.649 33.172 60.127 33.172 60.932 38.001 L 64.956 64.08 L 71.717 107.705 C 72.197 110.441 70.429 112.856 68.176 112.856 L 57.39 113.017 Z " fill="rgb(16,59,64)"/><path d=" M 20.848 112.856 L 10.063 112.856 C 7.809 112.856 6.2 110.28 6.521 107.705 L 13.282 63.919 L 17.307 37.84 C 18.107 33.011 23.585 33.011 24.39 37.84 L 28.414 63.919 L 35.014 107.544 C 35.494 110.28 33.726 112.695 31.473 112.695 L 20.848 112.856 Z " fill="rgb(16,59,64)"/></g></g></g></svg>