<svg xmlns="http://www.w3.org/2000/svg" width="28.027" height="22.763" viewBox="0 0 28.027 22.763">
  <path id="twitter" d="M25.146,5.673c.018.249.018.5.018.747,0,7.594-5.78,16.343-16.343,16.343A16.232,16.232,0,0,1,0,20.184a11.883,11.883,0,0,0,1.387.071A11.5,11.5,0,0,0,8.518,17.8a5.754,5.754,0,0,1-5.371-3.984,7.244,7.244,0,0,0,1.085.089,6.075,6.075,0,0,0,1.512-.2A5.745,5.745,0,0,1,1.138,8.074V8a5.785,5.785,0,0,0,2.6.729A5.753,5.753,0,0,1,1.956,1.049,16.328,16.328,0,0,0,13.8,7.06a6.484,6.484,0,0,1-.142-1.316A5.75,5.75,0,0,1,23.6,1.814,11.309,11.309,0,0,0,27.245.427a5.729,5.729,0,0,1-2.525,3.165A11.515,11.515,0,0,0,28.027,2.7,12.348,12.348,0,0,1,25.146,5.673Z" fill="#103b40"/>
</svg>
