<svg xmlns="http://www.w3.org/2000/svg" xmlns:xlink="http://www.w3.org/1999/xlink" width="56.141" height="44.501" viewBox="0 0 56.141 44.501">
  <defs>
    <clipPath id="clip-path">
      <rect id="Rectangle_310" data-name="Rectangle 310" width="56.141" height="44.501" fill="none"/>
    </clipPath>
  </defs>
  <g id="Group_399" data-name="Group 399" transform="translate(-42 -31.278)">
    <g id="Group_252" data-name="Group 252" transform="translate(98.141 75.779) rotate(180)" clip-path="url(#clip-path)">
      <path id="Path_409" data-name="Path 409" d="M7.929,0H13.88c1.244,0,2.132,1.452,1.954,2.9L12.1,27.5,9.883,42.3c-.444,2.723-3.464,2.723-3.909,0L3.754,27.5.023,2.9C-.155,1.452.733,0,1.977,0Z" transform="translate(-0.023)" fill="currentColor"/>
      <path id="Path_410" data-name="Path 410" d="M7.95,0H13.9c1.244,0,2.132,1.452,1.954,2.9L12.125,27.592,9.9,42.3C9.46,45.018,6.44,45.018,6,42.3l-2.221-14.7L.044,3A2.317,2.317,0,0,1,2,.091Z" transform="translate(20.12 0.091)" fill="currentColor"/>
      <path id="Path_411" data-name="Path 411" d="M7.861,0h5.952c1.244,0,2.132,1.452,1.954,2.9L12.036,27.592,9.815,42.3c-.444,2.723-3.464,2.723-3.909,0l-2.221-14.7L.044,3A2.317,2.317,0,0,1,2,.091Z" transform="translate(40.374 0.182)" fill="currentColor"/>
    </g>
  </g>
</svg>
